<mxfile host="65bd71144e">
    <diagram id="avH5fRk2alGWSBSheF_r" name="Page-1">
        <mxGraphModel dx="818" dy="862" grid="1" gridSize="10" guides="1" tooltips="1" connect="1" arrows="1" fold="1" page="1" pageScale="1" pageWidth="850" pageHeight="1100" math="0" shadow="0">
            <root>
                <mxCell id="0"/>
                <mxCell id="1" parent="0"/>
                <mxCell id="3ZbOcTFc03h0VQzpRt9E-4" value="" style="edgeStyle=none;html=1;" edge="1" parent="1" source="3ZbOcTFc03h0VQzpRt9E-1" target="3ZbOcTFc03h0VQzpRt9E-3">
                    <mxGeometry relative="1" as="geometry"/>
                </mxCell>
                <mxCell id="3ZbOcTFc03h0VQzpRt9E-1" value="OrganizeFacade.py" style="rounded=0;whiteSpace=wrap;html=1;" vertex="1" parent="1">
                    <mxGeometry x="310" y="100" width="120" height="60" as="geometry"/>
                </mxCell>
                <mxCell id="3ZbOcTFc03h0VQzpRt9E-6" value="" style="edgeStyle=none;html=1;" edge="1" parent="1" source="3ZbOcTFc03h0VQzpRt9E-3" target="3ZbOcTFc03h0VQzpRt9E-5">
                    <mxGeometry relative="1" as="geometry"/>
                </mxCell>
                <mxCell id="3ZbOcTFc03h0VQzpRt9E-7" value="" style="edgeStyle=none;html=1;" edge="1" parent="1" source="3ZbOcTFc03h0VQzpRt9E-3" target="3ZbOcTFc03h0VQzpRt9E-5">
                    <mxGeometry relative="1" as="geometry"/>
                </mxCell>
                <mxCell id="3ZbOcTFc03h0VQzpRt9E-9" value="" style="edgeStyle=none;html=1;" edge="1" parent="1" source="3ZbOcTFc03h0VQzpRt9E-3" target="3ZbOcTFc03h0VQzpRt9E-5">
                    <mxGeometry relative="1" as="geometry"/>
                </mxCell>
                <mxCell id="3ZbOcTFc03h0VQzpRt9E-10" style="edgeStyle=none;html=1;" edge="1" parent="1" source="3ZbOcTFc03h0VQzpRt9E-3" target="3ZbOcTFc03h0VQzpRt9E-11">
                    <mxGeometry relative="1" as="geometry">
                        <mxPoint x="500" y="390" as="targetPoint"/>
                    </mxGeometry>
                </mxCell>
                <mxCell id="3ZbOcTFc03h0VQzpRt9E-15" style="edgeStyle=none;html=1;" edge="1" parent="1" source="3ZbOcTFc03h0VQzpRt9E-3" target="3ZbOcTFc03h0VQzpRt9E-16">
                    <mxGeometry relative="1" as="geometry">
                        <mxPoint x="650" y="390" as="targetPoint"/>
                    </mxGeometry>
                </mxCell>
                <mxCell id="3ZbOcTFc03h0VQzpRt9E-22" value="" style="edgeStyle=none;html=1;" edge="1" parent="1" source="3ZbOcTFc03h0VQzpRt9E-3" target="3ZbOcTFc03h0VQzpRt9E-21">
                    <mxGeometry relative="1" as="geometry"/>
                </mxCell>
                <mxCell id="3ZbOcTFc03h0VQzpRt9E-3" value="def OrganizerFactory" style="rounded=0;whiteSpace=wrap;html=1;" vertex="1" parent="1">
                    <mxGeometry x="310" y="250" width="120" height="60" as="geometry"/>
                </mxCell>
                <mxCell id="3ZbOcTFc03h0VQzpRt9E-5" value="SpreadSheetOrganizer.py" style="rounded=0;whiteSpace=wrap;html=1;" vertex="1" parent="1">
                    <mxGeometry x="210" y="390" width="150" height="60" as="geometry"/>
                </mxCell>
                <mxCell id="3ZbOcTFc03h0VQzpRt9E-11" value="MediaOrganizer.py" style="rounded=0;whiteSpace=wrap;html=1;" vertex="1" parent="1">
                    <mxGeometry x="380" y="390" width="170" height="60" as="geometry"/>
                </mxCell>
                <mxCell id="3ZbOcTFc03h0VQzpRt9E-12" value="CSV,XlsX" style="text;html=1;align=center;verticalAlign=middle;resizable=0;points=[];autosize=1;strokeColor=none;fillColor=none;" vertex="1" parent="1">
                    <mxGeometry x="245" y="330" width="80" height="30" as="geometry"/>
                </mxCell>
                <mxCell id="3ZbOcTFc03h0VQzpRt9E-13" value="Jpg,Png,Mp3,Mp4..." style="text;html=1;align=center;verticalAlign=middle;resizable=0;points=[];autosize=1;strokeColor=none;fillColor=none;" vertex="1" parent="1">
                    <mxGeometry x="400" y="340" width="130" height="30" as="geometry"/>
                </mxCell>
                <mxCell id="3ZbOcTFc03h0VQzpRt9E-16" value="DocumentOrganizer.py" style="rounded=0;whiteSpace=wrap;html=1;" vertex="1" parent="1">
                    <mxGeometry x="600" y="400" width="130" height="60" as="geometry"/>
                </mxCell>
                <mxCell id="3ZbOcTFc03h0VQzpRt9E-18" value="Pdf, html, md" style="text;html=1;align=center;verticalAlign=middle;resizable=0;points=[];autosize=1;strokeColor=none;fillColor=none;" vertex="1" parent="1">
                    <mxGeometry x="510" y="320" width="90" height="30" as="geometry"/>
                </mxCell>
                <mxCell id="3ZbOcTFc03h0VQzpRt9E-21" value="PacksOrganizer.py" style="rounded=0;whiteSpace=wrap;html=1;" vertex="1" parent="1">
                    <mxGeometry x="20" y="390" width="120" height="60" as="geometry"/>
                </mxCell>
                <mxCell id="3ZbOcTFc03h0VQzpRt9E-23" value="rar,zip,exe" style="text;html=1;align=center;verticalAlign=middle;resizable=0;points=[];autosize=1;strokeColor=none;fillColor=none;" vertex="1" parent="1">
                    <mxGeometry x="120" y="310" width="80" height="30" as="geometry"/>
                </mxCell>
            </root>
        </mxGraphModel>
    </diagram>
</mxfile>